<svg width="146" height="25" viewBox="0 0 146 25" fill="none" xmlns="http://www.w3.org/2000/svg">
<path d="M85.2863 19.8333C83.1758 19.8333 81.4109 19.1296 79.9914 17.7222C78.5906 16.3148 77.8903 14.5741 77.8903 12.5C77.8903 10.4259 78.5906 8.68518 79.9914 7.27778C81.4109 5.87037 83.1758 5.16667 85.2863 5.16667C86.6497 5.16667 87.8918 5.49074 89.0124 6.13889C90.133 6.78704 90.9828 7.65741 91.5618 8.75L88.4521 10.5556C88.1719 9.98148 87.7423 9.52778 87.1634 9.19444C86.6031 8.86111 85.968 8.69444 85.2583 8.69444C84.175 8.69444 83.2786 9.05555 82.5688 9.77778C81.8591 10.4815 81.5042 11.3889 81.5042 12.5C81.5042 13.5926 81.8591 14.5 82.5688 15.2222C83.2786 15.9259 84.175 16.2778 85.2583 16.2778C85.9867 16.2778 86.6311 16.1204 87.1914 15.8056C87.7704 15.4722 88.1999 15.0185 88.4801 14.4444L91.6178 16.2222C91.0015 17.3148 90.133 18.1944 89.0124 18.8611C87.8918 19.5093 86.6497 19.8333 85.2863 19.8333Z" fill="#333333"/>
<path d="M104.965 17.7222C103.527 19.1296 101.771 19.8333 99.6978 19.8333C97.6247 19.8333 95.8691 19.1296 94.4309 17.7222C93.0115 16.2963 92.3018 14.5556 92.3018 12.5C92.3018 10.4444 93.0115 8.71296 94.4309 7.30555C95.8691 5.87963 97.6247 5.16667 99.6978 5.16667C101.771 5.16667 103.527 5.87963 104.965 7.30555C106.403 8.71296 107.122 10.4444 107.122 12.5C107.122 14.5556 106.403 16.2963 104.965 17.7222ZM96.9803 15.25C97.7087 15.9722 98.6146 16.3333 99.6978 16.3333C100.781 16.3333 101.687 15.9722 102.415 15.25C103.144 14.5278 103.508 13.6111 103.508 12.5C103.508 11.3889 103.144 10.4722 102.415 9.75C101.687 9.02778 100.781 8.66667 99.6978 8.66667C98.6146 8.66667 97.7087 9.02778 96.9803 9.75C96.2706 10.4722 95.9158 11.3889 95.9158 12.5C95.9158 13.6111 96.2706 14.5278 96.9803 15.25Z" fill="#333333"/>
<path d="M120.002 0H123.616V19.4444H120.002V17.8056C118.937 19.1574 117.425 19.8333 115.463 19.8333C113.577 19.8333 111.962 19.1296 110.617 17.7222C109.291 16.2963 108.628 14.5556 108.628 12.5C108.628 10.4444 109.291 8.71296 110.617 7.30555C111.962 5.87963 113.577 5.16667 115.463 5.16667C117.425 5.16667 118.937 5.84259 120.002 7.19444V0ZM113.334 15.3333C114.081 16.0556 115.015 16.4167 116.136 16.4167C117.256 16.4167 118.181 16.0556 118.909 15.3333C119.638 14.5926 120.002 13.6481 120.002 12.5C120.002 11.3518 119.638 10.4167 118.909 9.69444C118.181 8.9537 117.256 8.58333 116.136 8.58333C115.015 8.58333 114.081 8.9537 113.334 9.69444C112.606 10.4167 112.242 11.3518 112.242 12.5C112.242 13.6481 112.606 14.5926 113.334 15.3333Z" fill="#333333"/>
<path d="M129.695 13.9722C130.18 15.713 131.497 16.5833 133.645 16.5833C135.027 16.5833 136.073 16.1204 136.783 15.1944L139.696 16.8611C138.314 18.8426 136.278 19.8333 133.589 19.8333C131.273 19.8333 129.415 19.1389 128.014 17.75C126.613 16.3611 125.913 14.6111 125.913 12.5C125.913 10.4074 126.604 8.66667 127.986 7.27778C129.368 5.87037 131.142 5.16667 133.309 5.16667C135.363 5.16667 137.053 5.87037 138.379 7.27778C139.724 8.68518 140.397 10.4259 140.397 12.5C140.397 12.963 140.35 13.4537 140.256 13.9722H129.695ZM129.639 11.1944H136.783C136.577 10.25 136.148 9.54629 135.494 9.08333C134.859 8.62037 134.13 8.38889 133.309 8.38889C132.337 8.38889 131.534 8.63889 130.899 9.13889C130.264 9.62037 129.844 10.3056 129.639 11.1944Z" fill="#333333"/>
<path d="M145.3 19.1111C144.833 19.5741 144.272 19.8056 143.619 19.8056C142.965 19.8056 142.405 19.5741 141.938 19.1111C141.471 18.6481 141.237 18.0926 141.237 17.4444C141.237 16.7963 141.471 16.2407 141.938 15.7778C142.405 15.3148 142.965 15.0833 143.619 15.0833C144.272 15.0833 144.833 15.3148 145.3 15.7778C145.767 16.2407 146 16.7963 146 17.4444C146 18.0926 145.767 18.6481 145.3 19.1111Z" fill="#333333"/>
<path d="M4.28635 9.49996C4.28635 9.87033 4.52915 10.1759 5.01476 10.4166C5.51903 10.6388 6.12603 10.8425 6.83576 11.0277C7.54548 11.1944 8.2552 11.4166 8.96493 11.6944C9.67465 11.9537 10.2723 12.3981 10.7579 13.0277C11.2622 13.6574 11.5143 14.4444 11.5143 15.3888C11.5143 16.8148 10.9727 17.9166 9.88943 18.6944C8.82485 19.4537 7.48945 19.8333 5.88323 19.8333C3.00699 19.8333 1.04591 18.7314 0 16.5277L3.13772 14.7777C3.54862 15.9814 4.46379 16.5833 5.88323 16.5833C7.17194 16.5833 7.81629 16.1851 7.81629 15.3888C7.81629 15.0185 7.56416 14.7222 7.05988 14.5C6.57428 14.2592 5.97662 14.0463 5.26689 13.8611C4.55717 13.6759 3.84745 13.4444 3.13772 13.1666C2.428 12.8888 1.821 12.4537 1.31672 11.8611C0.831123 11.25 0.588323 10.4907 0.588323 9.58329C0.588323 8.21292 1.0926 7.13885 2.10115 6.36107C3.12839 5.56477 4.39842 5.16663 5.91125 5.16663C7.05054 5.16663 8.08711 5.42589 9.02096 5.9444C9.9548 6.4444 10.6925 7.16662 11.2342 8.11107L8.15248 9.77774C7.70423 8.83329 6.95716 8.36107 5.91125 8.36107C5.44432 8.36107 5.05211 8.46292 4.7346 8.66663C4.43577 8.87033 4.28635 9.14811 4.28635 9.49996Z" fill="#0475C7"/>
<path d="M21.8476 5.16663C23.734 5.16663 25.3402 5.87959 26.6663 7.30551C28.011 8.71292 28.6834 10.4444 28.6834 12.5C28.6834 14.5555 28.011 16.2963 26.6663 17.7222C25.3402 19.1296 23.734 19.8333 21.8476 19.8333C19.8866 19.8333 18.3737 19.1574 17.3091 17.8055V25H13.6951V5.55551H17.3091V7.1944C18.3737 5.84255 19.8866 5.16663 21.8476 5.16663ZM18.4017 15.3333C19.1301 16.0555 20.0546 16.4166 21.1753 16.4166C22.2959 16.4166 23.2204 16.0555 23.9488 15.3333C24.6959 14.5925 25.0694 13.6481 25.0694 12.5C25.0694 11.3518 24.6959 10.4166 23.9488 9.6944C23.2204 8.95366 22.2959 8.58329 21.1753 8.58329C20.0546 8.58329 19.1301 8.95366 18.4017 9.6944C17.6733 10.4166 17.3091 11.3518 17.3091 12.5C17.3091 13.6481 17.6733 14.5925 18.4017 15.3333Z" fill="#0475C7"/>
<path d="M41.5978 5.55551H45.2118V19.4444H41.5978V17.8055C40.5146 19.1574 38.9924 19.8333 37.0313 19.8333C35.1636 19.8333 33.5574 19.1296 32.2127 17.7222C30.8866 16.2963 30.2236 14.5555 30.2236 12.5C30.2236 10.4444 30.8866 8.71292 32.2127 7.30551C33.5574 5.87959 35.1636 5.16663 37.0313 5.16663C38.9924 5.16663 40.5146 5.84255 41.5978 7.1944V5.55551ZM34.9302 15.3333C35.6586 16.0555 36.5831 16.4166 37.7037 16.4166C38.8243 16.4166 39.7488 16.0555 40.4772 15.3333C41.2243 14.5925 41.5978 13.6481 41.5978 12.5C41.5978 11.3518 41.2243 10.4166 40.4772 9.6944C39.7488 8.95366 38.8243 8.58329 37.7037 8.58329C36.5831 8.58329 35.6586 8.95366 34.9302 9.6944C34.2018 10.4166 33.8376 11.3518 33.8376 12.5C33.8376 13.6481 34.2018 14.5925 34.9302 15.3333Z" fill="#0475C7"/>
<path d="M54.8765 19.8333C52.766 19.8333 51.001 19.1296 49.5816 17.7222C48.1808 16.3148 47.4804 14.574 47.4804 12.5C47.4804 10.4259 48.1808 8.68514 49.5816 7.27774C51.001 5.87033 52.766 5.16663 54.8765 5.16663C56.2399 5.16663 57.4819 5.4907 58.6025 6.13885C59.7231 6.787 60.5729 7.65737 61.1519 8.74996L58.0422 10.5555C57.762 9.98144 57.3325 9.52774 56.7535 9.1944C56.1932 8.86107 55.5582 8.6944 54.8484 8.6944C53.7652 8.6944 52.8687 9.05551 52.159 9.77774C51.4492 10.4814 51.0944 11.3888 51.0944 12.5C51.0944 13.5925 51.4492 14.5 52.159 15.2222C52.8687 15.9259 53.7652 16.2777 54.8484 16.2777C55.5768 16.2777 56.2212 16.1203 56.7815 15.8055C57.3605 15.4722 57.7901 15.0185 58.0702 14.4444L61.2079 16.2222C60.5916 17.3148 59.7231 18.1944 58.6025 18.8611C57.4819 19.5092 56.2399 19.8333 54.8765 19.8333Z" fill="#0475C7"/>
<path d="M65.674 13.9722C66.1596 15.7129 67.4763 16.5833 69.6242 16.5833C71.0062 16.5833 72.0522 16.1203 72.7619 15.1944L75.6755 16.8611C74.2934 18.8425 72.2576 19.8333 69.5681 19.8333C67.2522 19.8333 65.3938 19.1388 63.9931 17.75C62.5923 16.3611 61.8919 14.6111 61.8919 12.5C61.8919 10.4074 62.583 8.66662 63.965 7.27774C65.3471 5.87033 67.1215 5.16663 69.288 5.16663C71.3424 5.16663 73.0327 5.87033 74.3588 7.27774C75.7035 8.68514 76.3759 10.4259 76.3759 12.5C76.3759 12.9629 76.3292 13.4537 76.2358 13.9722H65.674ZM65.618 11.1944H72.7619C72.5564 10.25 72.1269 9.54625 71.4732 9.08329C70.8382 8.62033 70.1098 8.38885 69.288 8.38885C68.3168 8.38885 67.5137 8.63885 66.8787 9.13885C66.2436 9.62033 65.8234 10.3055 65.618 11.1944Z" fill="#0475C7"/>
</svg>
